<svg width="51" height="19" viewBox="0 0 51 19" fill="none" xmlns="http://www.w3.org/2000/svg">
<rect x="12.7011" y="2.01102" width="9.40883" height="14.8143" fill="#FF7C60"/>
<path d="M12.9146 9.41835C12.9146 6.40971 14.3278 3.74118 16.4999 2.01448C14.9036 0.7587 12.8885 0 10.6902 0C5.48235 0 1.26898 4.21209 1.26898 9.41835C1.26898 14.6246 5.48235 18.8367 10.6902 18.8367C12.8885 18.8367 14.9036 18.078 16.4999 16.8222C14.3278 15.1217 12.9146 12.427 12.9146 9.41835Z" fill="#F24155"/>
<path d="M31.7309 9.41835C31.7309 14.6246 27.5176 18.8367 22.3097 18.8367C20.1115 18.8367 18.0964 18.078 16.5 16.8222C18.6721 15.1217 20.0853 12.427 20.0853 9.41835C20.0853 6.40971 18.6721 3.74118 16.5 2.01448C18.0964 0.7587 20.1115 0 22.3097 0C27.5176 0 31.7309 4.23826 31.7309 9.41835Z" fill="#FBD090"/>
<g opacity="0.7">
<circle cx="45" cy="10.0009" r="2" fill="white"/>
<circle cx="39" cy="10.0009" r="2" fill="white"/>
</g>
</svg>
