<svg width="82" height="19" viewBox="0 0 82 19" fill="none" xmlns="http://www.w3.org/2000/svg">
<g opacity="0.7">
<path d="M52.3943 12.2955H56.5321V14H57.7892V12.2955H58.9441V11.179H57.7892V5.27273H56.1657L52.3943 11.2301V12.2955ZM56.5407 11.179H53.775V11.1108L56.4725 6.84091H56.5407V11.179ZM63.4675 14.1193C65.2487 14.1193 66.557 13.054 66.5527 11.6051C66.557 10.5014 65.888 9.70881 64.7289 9.52983V9.46165C65.6408 9.22727 66.2331 8.51136 66.2289 7.53125C66.2331 6.24858 65.1806 5.15341 63.5016 5.15341C61.8993 5.15341 60.6124 6.12074 60.5698 7.53977H61.8439C61.8737 6.73864 62.628 6.25284 63.4845 6.25284C64.3752 6.25284 64.959 6.79403 64.9547 7.59943C64.959 8.44318 64.2814 8.99716 63.3141 8.99716H62.5769V10.071H63.3141C64.5243 10.071 65.2232 10.6847 65.2232 11.5625C65.2232 12.4105 64.486 12.9858 63.459 12.9858C62.513 12.9858 61.7757 12.5 61.7246 11.7244H60.3865C60.4419 13.1477 61.7033 14.1193 63.4675 14.1193ZM71.0442 14.1193C72.7999 14.1193 74.0527 12.8793 74.0485 11.179C74.0527 9.49148 72.8766 8.2642 71.2871 8.2642C70.6394 8.2642 70.0385 8.51136 69.6976 8.84375H69.6465L69.9235 6.40199H73.6266V5.27273H68.8283L68.3382 9.67045L69.5442 9.84943C69.8723 9.5554 70.4604 9.35511 70.9888 9.35511C72.0243 9.36364 72.7743 10.1392 72.7743 11.2045C72.7743 12.2528 72.0456 13.0114 71.0442 13.0114C70.2005 13.0114 69.5314 12.4744 69.4632 11.7244H68.1848C68.236 13.1136 69.4419 14.1193 71.0442 14.1193ZM78.4856 14.1193C80.2413 14.1193 81.4941 12.8793 81.4899 11.179C81.4941 9.49148 80.318 8.2642 78.7285 8.2642C78.0808 8.2642 77.4799 8.51136 77.139 8.84375H77.0879L77.3649 6.40199H81.068V5.27273H76.2697L75.7796 9.67045L76.9856 9.84943C77.3137 9.5554 77.9018 9.35511 78.4302 9.35511C79.4657 9.36364 80.2157 10.1392 80.2157 11.2045C80.2157 12.2528 79.487 13.0114 78.4856 13.0114C77.6419 13.0114 76.9728 12.4744 76.9046 11.7244H75.6262C75.6774 13.1136 76.8833 14.1193 78.4856 14.1193Z" fill="white"/>
<ellipse cx="45.881" cy="10" rx="1.95238" ry="2" fill="white"/>
<ellipse cx="40.0238" cy="10" rx="1.95238" ry="2" fill="white"/>
</g>
<g clip-path="url(#clip0)">
<path d="M14.8058 15.827H12.038L13.7691 4.21064H16.5368L14.8058 15.827Z" fill="white"/>
<path d="M24.84 4.49455C24.294 4.25951 23.4282 4 22.3575 4C19.6242 4 17.6995 5.58171 17.6877 7.84309C17.665 9.51152 19.0657 10.4382 20.1134 10.9945C21.1842 11.563 21.5482 11.934 21.5482 12.4407C21.5373 13.2189 20.6829 13.5777 19.8861 13.5777C18.7811 13.5777 18.189 13.3927 17.2892 12.9598L16.9247 12.7742L16.5374 15.3818C17.1866 15.7027 18.3825 15.9875 19.6242 16C22.5284 16 24.419 14.4428 24.4414 12.0329C24.4525 10.7105 23.7128 9.69729 22.1182 8.86931C21.1502 8.3378 20.5573 7.97941 20.5573 7.43559C20.5687 6.9412 21.0587 6.43482 22.1515 6.43482C23.0513 6.41002 23.7124 6.64473 24.2132 6.87961L24.4635 7.00296L24.84 4.49455Z" fill="white"/>
<path d="M28.5174 11.7117C28.7453 11.0444 29.6224 8.46156 29.6224 8.46156C29.6109 8.48636 29.8499 7.7819 29.9865 7.34943L30.18 8.35036C30.18 8.35036 30.7041 11.1309 30.8179 11.7117C30.3853 11.7117 29.064 11.7117 28.5174 11.7117ZM31.9338 4.21064H29.7929C29.1327 4.21064 28.6312 4.42055 28.3463 5.17445L24.2352 15.8268H27.1393C27.1393 15.8268 27.6174 14.3931 27.7202 14.0843C28.0388 14.0843 30.8639 14.0843 31.2738 14.0843C31.3532 14.4921 31.604 15.8268 31.604 15.8268H34.1667L31.9338 4.21064Z" fill="white"/>
<path d="M9.72633 4.21064L7.01578 12.1319L6.71958 10.5253C6.21846 8.67163 4.64682 6.65761 2.89296 5.65619L5.37573 15.8146H8.30257L12.653 4.21064H9.72633Z" fill="white"/>
<path d="M4.49862 4.21064H0.0455566L0 4.44535C3.47367 5.40933 5.77421 7.73295 6.7194 10.5258L5.75136 5.1871C5.59199 4.44519 5.10221 4.23511 4.49862 4.21064Z" fill="white"/>
</g>
<defs>
<clipPath id="clip0">
<rect width="34.1667" height="12" fill="white" transform="translate(0 4)"/>
</clipPath>
</defs>
</svg>
